<!-- icon666.com - MILLIONS vector ICONS FREE --><svg id="Capa_1" enable-background="new 0 0 512.004 512.004" viewBox="0 0 512.004 512.004" xmlns="http://www.w3.org/2000/svg" xmlns:xlink="http://www.w3.org/1999/xlink"><linearGradient id="SVGID_1_" gradientUnits="userSpaceOnUse" x1="0" x2="512.004" y1="256.002" y2="256.002"><stop offset="0" stop-color="#00f2fe"></stop><stop offset=".0208" stop-color="#03effe"></stop><stop offset=".2931" stop-color="#24d2fe"></stop><stop offset=".5538" stop-color="#3cbdfe"></stop><stop offset=".7956" stop-color="#4ab0fe"></stop><stop offset="1" stop-color="#4facfe"></stop></linearGradient><path d="m512.002 492.002c0 11.046-8.954 20-20 20h-472c-11.046 0-20-8.954-20-20s8.954-20 20-20h472c11.046 0 20 8.954 20 20zm-511.455-348.364c-2.146-9.007 2.171-18.311 10.436-22.487l235.5-119c5.661-2.86 12.346-2.866 18.009-.015l236.5 119c8.277 4.165 12.61 13.47 10.47 22.485-2.141 9.016-10.193 15.38-19.459 15.38h-15v96c0 11.046-8.954 20-20 20s-20-8.954-20-20v-1.5c0-11.304-9.196-20.5-20.5-20.5s-20.5 9.196-20.5 20.5v137.5h41v-36c0-11.046 8.954-20 20-20s20 8.954 20 20v56c0 11.046-8.954 20-20 20h-402c-11.046 0-20-8.954-20-20v-252h-15c-9.261.001-17.31-6.356-19.456-15.363zm74.455 247.364h41v-136.5c0-11.304-9.196-20.5-20.5-20.5s-20.5 9.196-20.5 20.5zm201-136.5c0-11.304-9.196-20.5-20.5-20.5s-20.5 9.196-20.5 20.5v136.5h41s0-136.332 0-136.5zm-81-1c0-10.752-8.748-19.5-19.5-19.5s-19.5 8.748-19.5 19.5v137.5h39zm161 137.5v-137c0-11.028-8.972-20-20-20s-20 8.972-20 20c0 .056-.008.111-.008.167 0 .111.008 136.833.008 136.833zm81-232h-362v38.582c6.405-2.314 13.307-3.582 20.5-3.582 15.413 0 29.491 5.803 40.186 15.327 10.552-9.52 24.517-15.327 39.814-15.327s29.262 5.807 39.814 15.327c10.694-9.524 24.772-15.327 40.186-15.327 15.488 0 29.63 5.856 40.343 15.463 10.642-9.605 24.727-15.463 40.157-15.463 15.162 0 29.019 5.665 39.593 14.974 10.778-9.91 25.146-15.974 40.907-15.974 7.193 0 14.095 1.268 20.5 3.582zm-333.074-40h303.83l-152.237-76.602z" fill="url(#SVGID_1_)"></path></svg>